{
  "accessors": [
    {
      "bufferView": 0,
      "componentType": 5125,
      "count": 51765,
      "type": "SCALAR"
    },
    {
      "bufferView": 1,
      "componentType": 5126,
      "count": 9717,
      "max": [1.0, 0.557439565658569, 0.397309482097626],
      "min": [-1.0, -0.557439565658569, -0.397309482097626],
      "type": "VEC3"
    },
    {
      "bufferView": 2,
      "componentType": 5126,
      "count": 9717,
      "type": "VEC3"
    },
    {
      "bufferView": 3,
      "componentType": 5126,
      "count": 9717,
      "type": "VEC2"
    }
  ],
  "asset": {
    "generator": "Substance Painter 2019.1.2",
    "version": "2.0"
  },
  "bufferViews": [
    {
      "buffer": 0,
      "byteLength": 207060,
      "target": 34963
    },
    {
      "buffer": 0,
      "byteLength": 116604,
      "byteOffset": 207060,
      "target": 34962
    },
    {
      "buffer": 0,
      "byteLength": 116604,
      "byteOffset": 323664,
      "target": 34962
    },
    {
      "buffer": 0,
      "byteLength": 77736,
      "byteOffset": 440268,
      "target": 34962
    }
  ],
  "buffers": [
    {
      "byteLength": 518004,
      "uri": "airJordanBlack_lookdev_painter_01.bin"
    }
  ],
  "images": [
    {
      "uri": "airJordanBlack_baseColor-V1.jpg"
    },
    {
      "uri": "airJordanBlack_occlusionRoughnessMetallic.jpg"
    },
    {
      "uri": "airJordanBlack_normal.jpg"
    }
  ],
  "materials": [
    {
      "alphaMode": "OPAQUE",
      "name": "airJordanBlack",
      "normalTexture": {
        "index": 2
      },
      "occlusionTexture": {
        "index": 1
      },
      "pbrMetallicRoughness": {
        "baseColorTexture": {
          "index": 0
        },
        "metallicRoughnessTexture": {
          "index": 1
        }
      }
    }
  ],
  "meshes": [
    {
      "name": "airJordanBlack_GEO",
      "primitives": [
        {
          "attributes": {
            "NORMAL": 2,
            "POSITION": 1,
            "TEXCOORD_0": 3
          },
          "indices": 0,
          "material": 0,
          "mode": 4
        }
      ]
    }
  ],
  "nodes": [
    {
      "children": [1],
      "name": "airJordanBlack_mayaExport_01_smooth.obj",
      "scale": [1.00080800056458, 1.00080800056458, 1.00080800056458],
      "translation": [
        0.0400840044021606,
        0.0120360255241394,
        4.24981117248535e-5
      ]
    },
    {
      "children": [2],
      "name": "g airJordanBlack_GEO"
    },
    {
      "mesh": 0,
      "name": "airJordanBlack_GEO"
    }
  ],
  "samplers": [
    {
      "magFilter": 9729,
      "minFilter": 9985,
      "wrapS": 10497,
      "wrapT": 10497
    }
  ],
  "scene": 0,
  "scenes": [
    {
      "name": "Scene",
      "nodes": [0]
    }
  ],
  "textures": [
    {
      "sampler": 0,
      "source": 0
    },
    {
      "sampler": 0,
      "source": 1
    },
    {
      "sampler": 0,
      "source": 2
    }
  ]
}
